<svg width="250" height="250" viewBox="0 0 250 250" fill="none" xmlns="http://www.w3.org/2000/svg">
<rect width="250" height="250" fill="#131515"/>
<path d="M124 126H224V226H124V126Z" fill="#339989"/>
<path d="M161.397 185.841V182.364L176.738 158.091H179.261V163.477H177.556L165.965 181.818V182.091H186.624V185.841H161.397ZM177.829 193V184.784V183.165V158.091H181.852V193H177.829Z" fill="#FFFAFB"/>
<path d="M26.5 127.5H121.5V223.5H26.5V127.5Z" stroke="#7DE2D1" stroke-width="5"/>
<path d="M74.1278 193.477C71.8778 193.477 69.8722 193.091 68.1108 192.318C66.3608 191.545 64.9688 190.472 63.9347 189.097C62.9119 187.71 62.3551 186.102 62.2642 184.273H66.5597C66.6506 185.398 67.0369 186.369 67.7188 187.188C68.4006 187.994 69.2926 188.619 70.3949 189.062C71.4972 189.506 72.7188 189.727 74.0597 189.727C75.5597 189.727 76.8892 189.466 78.0483 188.943C79.2074 188.42 80.1165 187.693 80.7756 186.761C81.4347 185.83 81.7642 184.75 81.7642 183.523C81.7642 182.239 81.446 181.108 80.8097 180.131C80.1733 179.142 79.2415 178.369 78.0142 177.812C76.7869 177.256 75.2869 176.977 73.5142 176.977H70.7188V173.227H73.5142C74.9006 173.227 76.1165 172.977 77.1619 172.477C78.2188 171.977 79.0426 171.273 79.6335 170.364C80.2358 169.455 80.5369 168.386 80.5369 167.159C80.5369 165.977 80.2756 164.949 79.7528 164.074C79.2301 163.199 78.4915 162.517 77.5369 162.028C76.5938 161.54 75.4801 161.295 74.196 161.295C72.9915 161.295 71.8551 161.517 70.7869 161.96C69.7301 162.392 68.8665 163.023 68.196 163.852C67.5256 164.67 67.1619 165.659 67.1051 166.818H63.0142C63.0824 164.989 63.6335 163.386 64.6676 162.011C65.7017 160.625 67.054 159.545 68.7244 158.773C70.4063 158 72.2528 157.614 74.2642 157.614C76.4233 157.614 78.2756 158.051 79.821 158.926C81.3665 159.79 82.554 160.932 83.3835 162.352C84.2131 163.773 84.6278 165.307 84.6278 166.955C84.6278 168.92 84.1108 170.597 83.0767 171.983C82.054 173.369 80.6619 174.33 78.9006 174.864V175.136C81.1051 175.5 82.8267 176.437 84.0653 177.949C85.304 179.449 85.9233 181.307 85.9233 183.523C85.9233 185.42 85.4063 187.125 84.3722 188.636C83.3494 190.136 81.9517 191.318 80.179 192.182C78.4063 193.045 76.3892 193.477 74.1278 193.477Z" fill="#7DE2D1"/>
<rect x="126.5" y="27.5" width="95" height="96" stroke="#7DE2D1" stroke-width="5"/>
<path d="M163.082 93V89.9318L174.605 77.3182C175.957 75.8409 177.071 74.5568 177.946 73.4659C178.821 72.3636 179.469 71.3295 179.889 70.3636C180.321 69.3864 180.537 68.3636 180.537 67.2955C180.537 66.0682 180.241 65.0057 179.651 64.108C179.071 63.2102 178.276 62.517 177.264 62.0284C176.253 61.5398 175.116 61.2955 173.855 61.2955C172.514 61.2955 171.344 61.5739 170.344 62.1307C169.355 62.6761 168.588 63.4432 168.043 64.4318C167.509 65.4205 167.241 66.5795 167.241 67.9091H163.219C163.219 65.8636 163.69 64.0682 164.634 62.5227C165.577 60.9773 166.861 59.7727 168.486 58.9091C170.122 58.0455 171.957 57.6136 173.991 57.6136C176.037 57.6136 177.849 58.0455 179.429 58.9091C181.009 59.7727 182.247 60.9375 183.145 62.4034C184.043 63.8693 184.491 65.5 184.491 67.2955C184.491 68.5795 184.259 69.8352 183.793 71.0625C183.338 72.2784 182.543 73.6364 181.406 75.1364C180.281 76.625 178.719 78.4432 176.719 80.5909L168.878 88.9773V89.25H185.105V93H163.082Z" fill="#7DE2D1"/>
<rect x="24" y="25" width="100" height="100" fill="#339989"/>
<path d="M78.7301 57.0909V92H74.5028V61.5227H74.2983L65.7756 67.1818V62.8864L74.5028 57.0909H78.7301Z" fill="#FFFAFB"/>
</svg>
